<svg width="202" height="87" viewBox="0 0 202 87" fill="none" xmlns="http://www.w3.org/2000/svg">
<path d="M202 68.0184H185.329C183.54 68.0184 182.158 66.553 182.158 64.8434V4.35473C182.158 2.56368 183.622 1.17969 185.329 1.17969H198.747C200.536 1.17969 201.919 2.64509 201.919 4.35473V68.0184H202Z" fill="#AF51E0"/>
<path d="M176.221 0.52832H158.9H148.654H145.564H128.161C126.535 0.52832 125.234 1.8309 125.234 3.45913V14.7753C125.234 16.4035 126.535 17.7061 128.161 17.7061H142.311V54.9925V64.9247C142.311 66.2273 143.775 67.367 145.564 67.367H154.753H158.9H159.795H162.153V64.9247V59.7144V17.7061H176.303C177.929 17.7061 179.23 16.4035 179.23 14.7753V3.45913C179.149 1.8309 177.848 0.52832 176.221 0.52832Z" fill="#AF51E0"/>
<path d="M68.3095 30.7319C67.5776 24.3818 64.894 18.6016 60.9906 13.9612C56.274 19.5786 53.4278 26.7428 53.4278 34.5583C53.4278 34.6397 53.4278 34.8025 53.4278 34.8839L53.3465 36.1865C52.696 43.3507 47.4915 48.6424 40.4979 50.0264C39.2781 50.2707 38.0583 50.4335 36.7572 50.4335C35.944 50.4335 35.2121 50.3521 34.3989 50.2707C26.7548 49.1309 20.8184 42.5366 20.8184 34.5583C20.8184 25.7658 27.9746 18.6831 36.6758 18.6831C42.6936 18.6831 47.8981 22.0209 50.5816 26.9056C51.8828 21.1254 54.6476 15.9151 58.551 11.6003C52.8586 6.1457 45.1332 2.80784 36.6758 2.80784C30.5768 2.80784 24.8031 4.51748 20.0052 7.5297V3.78477C20.0052 1.99372 18.5414 0.52832 16.7524 0.52832H3.25318C1.46413 0.52832 0.000366211 1.99372 0.000366211 3.78477V83.4051C0.000366211 85.1961 1.46413 86.6615 3.25318 86.6615H12.6863H16.8337H20.0865V83.4051V79.0089V61.5868C24.3151 64.192 29.1944 65.9016 34.3989 66.2273C35.1308 66.3087 35.944 66.3087 36.7572 66.3087C39.3594 66.3087 41.8803 65.983 44.32 65.4132C57.5752 61.8311 67.5776 49.3751 67.8215 35.1281V34.8839V34.5583C67.8215 33.2557 67.9842 31.9531 68.3095 30.7319Z" fill="url(#paint0_linear)"/>
<path d="M118.972 0.52832H105.31C103.521 0.52832 102.057 1.99372 102.057 3.78477V8.18099C97.2595 4.92453 91.4858 2.97066 85.3054 2.80784C84.9801 2.80784 84.6549 2.80784 84.4109 2.80784C82.9471 2.80784 81.4834 2.88925 80.1009 3.13348C65.0567 5.33159 53.4279 18.8459 53.4279 34.5583C53.4279 34.6397 53.4279 34.8025 53.4279 34.8839L53.3465 36.1865C53.2652 36.9192 53.1026 37.6519 52.9399 38.3846C53.6718 44.7347 56.3554 50.5149 60.2588 55.0739C64.8127 49.6194 67.6589 42.618 67.8216 35.1281V34.8839V34.5583C67.8216 26.7428 73.1887 20.7183 80.6702 19.0901C80.9955 19.0087 81.3207 18.9273 81.7273 18.8459C82.0526 18.7645 82.3779 18.7645 82.7845 18.6831C82.8658 18.6831 82.9471 18.6831 82.9471 18.6831C83.1098 18.6831 83.1911 18.6831 83.3537 18.6831C83.679 18.6831 84.0856 18.6831 84.4109 18.6831C85.1428 18.6831 85.8747 18.7645 86.6066 18.8459C94.332 19.9042 100.268 26.58 100.268 34.5583C100.268 43.3507 93.1122 50.4335 84.4109 50.4335C78.1492 50.4335 72.7821 46.77 70.1799 41.5596C68.8787 47.5027 66.1138 52.7944 62.2105 57.1092C67.9029 62.7266 75.791 66.2273 84.4109 66.2273C90.9979 66.2273 97.0156 64.2734 102.057 60.8541V64.1106C102.057 65.9016 103.521 67.367 105.31 67.367H114.743H118.891H122.144V64.1106V59.7144V3.78477C122.225 1.99372 120.761 0.52832 118.972 0.52832Z" fill="url(#paint1_linear)"/>
<defs>
<linearGradient id="paint0_linear" x1="-0.00581414" y1="43.636" x2="68.276" y2="43.636" gradientUnits="userSpaceOnUse">
<stop stop-color="#5E51E0"/>
<stop offset="1" stop-color="#9A51E0"/>
</linearGradient>
<linearGradient id="paint1_linear" x1="52.9517" y1="33.9574" x2="122.237" y2="33.9574" gradientUnits="userSpaceOnUse">
<stop stop-color="#7E51E0"/>
<stop offset="1" stop-color="#AF51E0"/>
</linearGradient>
</defs>
</svg>
